<?xml version="1.0" encoding="utf-8"?>
<!-- Generator: Adobe Illustrator 16.0.0, SVG Export Plug-In . SVG Version: 6.00 Build 0)  -->
<!DOCTYPE svg PUBLIC "-//W3C//DTD SVG 1.1//EN" "http://www.w3.org/Graphics/SVG/1.1/DTD/svg11.dtd">
<svg version="1.1" id="Layer_1" xmlns="http://www.w3.org/2000/svg" xmlns:xlink="http://www.w3.org/1999/xlink" x="0px" y="0px"
	 width="190.946px" height="31.687px" viewBox="0 0 190.946 31.687" enable-background="new 0 0 190.946 31.687"
	 xml:space="preserve">
<path fill="#A12349" d="M18.775,2.757v12.884c0,3.566-1.256,6.604-3.768,9.117c-2.512,2.512-5.551,3.768-9.117,3.768H2.465V25.1
	h3.425c2.617,0,4.848-0.922,6.692-2.766c1.845-1.845,2.767-4.075,2.767-6.693V2.757H18.775z"/>
<path fill="#A12349" d="M46.611,7.895c-0.457,0.474-1.019,0.711-1.687,0.711c-0.667,0-1.229-0.237-1.686-0.711
	c-0.474-0.474-0.711-1.037-0.711-1.687c0-0.667,0.237-1.238,0.711-1.712c0.457-0.457,1.019-0.685,1.686-0.685
	c0.667,0,1.229,0.229,1.687,0.685c0.475,0.474,0.711,1.045,0.711,1.712C47.323,6.858,47.086,7.42,46.611,7.895z M43.213,11.347
	v17.179h3.425V11.347H43.213z"/>
<path fill="#A12349" d="M57.893,11.347c2.372,0,4.391,0.842,6.061,2.529c1.687,1.67,2.529,3.689,2.529,6.061v8.59h-3.451v-8.59
	c0-1.423-0.501-2.635-1.502-3.637c-1.001-1.001-2.213-1.501-3.636-1.501c-1.422,0-2.634,0.5-3.636,1.501
	c-1.019,1.002-1.529,2.214-1.529,3.637v8.59h-3.425v-8.59c0-2.371,0.835-4.391,2.503-6.061
	C53.493,12.189,55.521,11.347,57.893,11.347z"/>
<path fill="#333342" d="M93.833,25.1v3.426H80.948c-3.566,0-6.605-1.256-9.117-3.768c-2.511-2.513-3.767-5.551-3.767-9.117
	c0-3.548,1.256-6.587,3.767-9.117c2.512-2.512,5.551-3.768,9.117-3.768c2.775,0,5.279,0.808,7.509,2.424
	c2.196,1.581,3.742,3.636,4.638,6.166h-3.742c-0.79-1.546-1.923-2.784-3.398-3.716c-1.529-0.948-3.198-1.423-5.007-1.423
	c-2.618,0-4.848,0.922-6.693,2.767c-1.845,1.845-2.767,4.067-2.767,6.667c0,2.618,0.922,4.849,2.767,6.693
	c1.845,1.844,4.075,2.766,6.693,2.766H93.833z"/>
<path fill="#333342" d="M96.023,28.526v-8.59c0-2.371,0.834-4.391,2.504-6.061c1.686-1.687,3.715-2.529,6.086-2.529h3.425v3.452
	h-3.425c-1.423,0-2.635,0.5-3.636,1.501c-1.02,1.002-1.529,2.214-1.529,3.637v8.59H96.023z"/>
<path fill="#333342" d="M117.648,11.347c2.372,0,4.392,0.842,6.061,2.529c1.686,1.67,2.529,3.689,2.529,6.061
	s-0.843,4.4-2.529,6.087c-1.669,1.669-3.689,2.503-6.061,2.503c-2.371,0-4.4-0.834-6.086-2.503
	c-1.669-1.687-2.503-3.716-2.503-6.087s0.834-4.391,2.503-6.061C113.249,12.189,115.277,11.347,117.648,11.347z M117.648,25.1
	c1.424,0,2.635-0.509,3.636-1.528c1.002-1,1.502-2.213,1.502-3.636s-0.5-2.635-1.502-3.637c-1-1.001-2.212-1.501-3.636-1.501
	c-1.422,0-2.635,0.5-3.636,1.501c-1.02,1.002-1.528,2.214-1.528,3.637s0.509,2.636,1.528,3.636
	C115.013,24.591,116.226,25.1,117.648,25.1z"/>
<path fill="#333342" d="M152.994,11.347L146.116,25.1l-1.713,3.426l-1.843-3.689l-3.322-6.613l-3.425,6.877l-1.712,3.426
	l-1.845-3.689l-6.745-13.49h3.426l5.164,10.302l2.977-5.981l2.16-4.321l1.924,3.82l3.241,6.482l5.165-10.302H152.994z"/>
<path fill="#333342" d="M152.309,19.936c0-2.371,0.834-4.391,2.502-6.061c1.687-1.687,3.716-2.529,6.087-2.529
	c1.914,0,3.627,0.571,5.138,1.712V2.757h3.453v25.769h-8.59c-2.371,0-4.4-0.834-6.087-2.503
	C153.143,24.336,152.309,22.307,152.309,19.936z M155.734,19.936c0,1.423,0.509,2.636,1.528,3.636
	c1.002,1.02,2.213,1.528,3.637,1.528h5.138v-5.164c0-1.423-0.5-2.635-1.502-3.637c-1-1.001-2.212-1.501-3.635-1.501
	c-1.423,0-2.635,0.5-3.637,1.501C156.243,17.301,155.734,18.513,155.734,19.936z"/>
<path fill="#333342" d="M176.929,14.798c-0.473,0-0.887,0.167-1.238,0.5c-0.334,0.334-0.5,0.738-0.5,1.212
	c0,0.475,0.166,0.879,0.5,1.213c0.351,0.333,0.765,0.5,1.238,0.5h6.852c1.422,0,2.643,0.501,3.662,1.502
	c1.002,1.002,1.502,2.214,1.502,3.637s-0.5,2.644-1.502,3.662c-1.019,1.002-2.24,1.502-3.662,1.502h-12.015V25.1h12.015
	c0.474,0,0.877-0.166,1.211-0.501c0.333-0.351,0.5-0.764,0.5-1.237c0-0.475-0.167-0.878-0.5-1.213c-0.334-0.333-0.737-0.5-1.211-0.5
	h-6.852c-1.422,0-2.643-0.501-3.662-1.502c-1.001-1.002-1.501-2.214-1.501-3.637s0.5-2.643,1.501-3.662
	c1.019-1.001,2.24-1.501,3.662-1.501h12.017v3.452H176.929z"/>
<g opacity="0.6">
	<path opacity="0" fill="#FFFFFF" d="M41.829,18.405c-0.313-5.929-5.458-10.465-11.432-10.154
		C24.395,8.564,19.784,13.658,20.1,19.626c0.314,5.968,5.436,10.565,11.438,10.239c0.742-0.04,1.058-0.521,1.058-0.521l8.78-9.698
		l0.114-0.127C41.642,19.334,41.853,18.843,41.829,18.405z"/>
	<path opacity="0.0196" fill="#F8F8F9" d="M41.826,18.394c-0.308-5.93-5.448-10.471-11.421-10.166
		c-6.002,0.307-10.619,5.396-10.309,11.365c0.309,5.968,5.425,10.57,11.428,10.251c0.742-0.04,1.058-0.521,1.058-0.521l8.791-9.689
		l0.114-0.127C41.637,19.324,41.849,18.832,41.826,18.394z"/>
	<path opacity="0.0392" fill="#F3F4F4" d="M41.822,18.382c-0.301-5.929-5.437-10.476-11.411-10.176
		c-6.002,0.301-10.624,5.384-10.32,11.354c0.302,5.968,5.414,10.575,11.417,10.262c0.742-0.038,1.059-0.52,1.059-0.52l8.8-9.68
		l0.114-0.126C41.632,19.312,41.844,18.821,41.822,18.382z"/>
	<path opacity="0.0588" fill="#EFF0F0" d="M41.818,18.372c-0.295-5.93-5.426-10.481-11.4-10.188
		c-6.002,0.295-10.629,5.374-10.332,11.344c0.296,5.968,5.403,10.581,11.406,10.272c0.742-0.037,1.059-0.518,1.059-0.518l8.81-9.67
		l0.115-0.127C41.627,19.3,41.84,18.81,41.818,18.372z"/>
	<path opacity="0.0784" fill="#EBECEC" d="M41.814,18.36c-0.289-5.929-5.415-10.486-11.388-10.199
		c-6.003,0.289-10.635,5.363-10.344,11.332c0.29,5.969,5.392,10.587,11.395,10.285c0.742-0.036,1.06-0.517,1.06-0.517l8.819-9.661
		l0.115-0.127C41.623,19.29,41.836,18.799,41.814,18.36z"/>
	<path opacity="0.098" fill="#E7E8E9" d="M41.811,18.349c-0.283-5.93-5.403-10.492-11.378-10.21
		c-6.003,0.283-10.64,5.351-10.355,11.321c0.284,5.969,5.381,10.592,11.384,10.297c0.742-0.036,1.061-0.516,1.061-0.516l8.829-9.652
		l0.115-0.127C41.619,19.278,41.832,18.788,41.811,18.349z"/>
	<path opacity="0.1176" fill="#E3E4E5" d="M41.807,18.338c-0.277-5.93-5.393-10.497-11.368-10.222
		c-6.003,0.276-10.645,5.34-10.366,11.31c0.277,5.969,5.37,10.597,11.373,10.308c0.743-0.035,1.062-0.515,1.062-0.515l8.839-9.643
		l0.115-0.126C41.614,19.266,41.828,18.776,41.807,18.338z"/>
	<path opacity="0.1373" fill="#DEE0E1" d="M41.803,18.327c-0.271-5.93-5.381-10.502-11.356-10.233
		c-6.003,0.271-10.651,5.33-10.378,11.3c0.271,5.969,5.359,10.603,11.363,10.318c0.742-0.033,1.061-0.513,1.061-0.513l8.849-9.634
		l0.115-0.126C41.609,19.255,41.824,18.766,41.803,18.327z"/>
	<path opacity="0.1569" fill="#DADCDD" d="M41.8,18.316c-0.265-5.93-5.371-10.508-11.346-10.245
		c-6.003,0.264-10.655,5.318-10.389,11.289c0.265,5.969,5.348,10.607,11.352,10.33c0.742-0.033,1.062-0.513,1.062-0.513l8.858-9.624
		l0.115-0.126C41.604,19.244,41.819,18.754,41.8,18.316z"/>
	<path opacity="0.1765" fill="#D6D7D9" d="M41.796,18.305c-0.258-5.931-5.36-10.514-11.335-10.257
		c-6.003,0.258-10.661,5.308-10.4,11.278c0.259,5.969,5.336,10.612,11.34,10.342c0.742-0.033,1.062-0.512,1.062-0.512l8.869-9.615
		l0.115-0.126C41.6,19.233,41.815,18.744,41.796,18.305z"/>
	<path opacity="0.1961" fill="#D2D3D5" d="M41.792,18.293c-0.252-5.93-5.349-10.518-11.324-10.268
		c-6.003,0.252-10.666,5.296-10.412,11.268c0.253,5.969,5.326,10.617,11.329,10.353c0.743-0.032,1.064-0.511,1.064-0.511
		l8.878-9.605l0.115-0.125C41.595,19.221,41.811,18.732,41.792,18.293z"/>
	<path opacity="0.2157" fill="#CECFD1" d="M41.788,18.283c-0.245-5.931-5.337-10.524-11.313-10.28
		c-6.003,0.246-10.671,5.286-10.423,11.257c0.247,5.969,5.314,10.623,11.318,10.364c0.742-0.032,1.064-0.51,1.064-0.51l8.888-9.597
		l0.116-0.125C41.59,19.209,41.807,18.721,41.788,18.283z"/>
	<path opacity="0.2353" fill="#CACBCD" d="M41.785,18.271c-0.24-5.931-5.327-10.528-11.302-10.29
		c-6.004,0.239-10.677,5.274-10.436,11.245c0.241,5.97,5.304,10.628,11.308,10.376c0.742-0.03,1.064-0.508,1.064-0.508l8.898-9.588
		l0.116-0.125C41.586,19.199,41.803,18.709,41.785,18.271z"/>
	<path opacity="0.2549" fill="#C5C7C9" d="M41.781,18.26C41.547,12.33,36.465,7.726,30.49,7.958
		c-6.004,0.233-10.682,5.263-10.447,11.234c0.234,5.97,5.292,10.634,11.297,10.388c0.743-0.03,1.065-0.508,1.065-0.508l8.907-9.578
		l0.116-0.125C41.582,19.187,41.798,18.699,41.781,18.26z"/>
	<path opacity="0.2745" fill="#C1C3C5" d="M41.777,18.25c-0.228-5.932-5.305-10.54-11.281-10.313
		c-6.004,0.227-10.687,5.252-10.458,11.223s5.281,10.64,11.287,10.4c0.743-0.029,1.065-0.507,1.065-0.507l8.918-9.569l0.115-0.125
		C41.577,19.176,41.794,18.688,41.777,18.25z"/>
	<path opacity="0.2941" fill="#BDBFC1" d="M41.774,18.238c-0.221-5.931-5.294-10.544-11.27-10.325
		c-6.005,0.222-10.693,5.242-10.47,11.212c0.222,5.971,5.27,10.645,11.275,10.411c0.742-0.028,1.065-0.505,1.065-0.505l8.927-9.56
		l0.117-0.126C41.572,19.165,41.791,18.676,41.774,18.238z"/>
	<path opacity="0.3137" fill="#B9BBBD" d="M41.77,18.227c-0.215-5.932-5.283-10.55-11.259-10.336
		c-6.004,0.215-10.698,5.231-10.481,11.202c0.216,5.971,5.259,10.65,11.264,10.423c0.743-0.028,1.066-0.504,1.066-0.504l8.937-9.551
		l0.117-0.126C41.567,19.153,41.786,18.666,41.77,18.227z"/>
	<path opacity="0.3333" fill="#B5B7B9" d="M41.767,18.215c-0.209-5.931-5.272-10.555-11.249-10.347
		c-6.004,0.209-10.703,5.219-10.492,11.191c0.209,5.971,5.248,10.655,11.253,10.434c0.743-0.026,1.067-0.503,1.067-0.503
		l8.946-9.541l0.117-0.125C41.562,19.142,41.782,18.655,41.767,18.215z"/>
	<path opacity="0.3529" fill="#B1B3B5" d="M41.763,18.205C41.56,12.273,36.502,7.644,30.525,7.846
		c-6.005,0.203-10.708,5.208-10.504,11.18c0.204,5.971,5.237,10.66,11.243,10.445c0.742-0.026,1.067-0.502,1.067-0.502l8.957-9.532
		l0.116-0.125C41.558,19.13,41.778,18.643,41.763,18.205z"/>
	<path opacity="0.3725" fill="#ADAFB1" d="M41.759,18.194c-0.196-5.932-5.25-10.566-11.227-10.371
		C24.527,8.02,19.818,13.02,20.017,18.993c0.197,5.971,5.227,10.665,11.231,10.456c0.743-0.025,1.068-0.5,1.068-0.5l8.966-9.523
		l0.116-0.125C41.553,19.12,41.773,18.632,41.759,18.194z"/>
	<path opacity="0.3922" fill="#A9ABAD" d="M41.755,18.182C41.565,12.25,36.517,7.611,30.539,7.8
		c-6.005,0.191-10.719,5.187-10.526,11.159c0.19,5.971,5.215,10.67,11.221,10.468c0.742-0.024,1.068-0.499,1.068-0.499l8.976-9.514
		l0.117-0.125C41.549,19.108,41.77,18.622,41.755,18.182z"/>
	<path opacity="0.4118" fill="#A5A7A9" d="M41.751,18.171c-0.184-5.933-5.228-10.576-11.205-10.394
		c-6.006,0.185-10.725,5.176-10.539,11.148c0.186,5.971,5.204,10.675,11.21,10.479c0.743-0.023,1.068-0.498,1.068-0.498l8.986-9.504
		l0.117-0.125C41.544,19.096,41.766,18.61,41.751,18.171z"/>
	<path opacity="0.4314" fill="#A1A3A5" d="M41.748,18.161C41.57,12.228,36.531,7.579,30.554,7.755
		c-6.006,0.179-10.729,5.165-10.55,11.138c0.179,5.971,5.192,10.681,11.199,10.49c0.742-0.023,1.069-0.497,1.069-0.497l8.996-9.495
		l0.117-0.125C41.54,19.084,41.761,18.599,41.748,18.161z"/>
	<path opacity="0.451" fill="#9D9FA2" d="M41.745,18.149c-0.172-5.933-5.207-10.587-11.184-10.416
		c-6.006,0.172-10.734,5.154-10.562,11.126s5.182,10.687,11.188,10.502c0.743-0.021,1.07-0.495,1.07-0.495l9.006-9.486l0.117-0.125
		C41.535,19.074,41.757,18.587,41.745,18.149z"/>
	<path opacity="0.4706" fill="#999B9E" d="M41.74,18.138C41.574,12.206,36.546,7.546,30.568,7.71
		c-6.006,0.166-10.74,5.143-10.573,11.115c0.167,5.973,5.171,10.691,11.177,10.514c0.743-0.021,1.07-0.495,1.07-0.495l9.016-9.477
		l0.117-0.124C41.53,19.062,41.753,18.577,41.74,18.138z"/>
	<path opacity="0.4902" fill="#95979A" d="M41.737,18.127c-0.16-5.934-5.184-10.598-11.162-10.439
		c-6.007,0.16-10.746,5.131-10.585,11.104c0.16,5.972,5.16,10.696,11.167,10.524c0.743-0.02,1.071-0.494,1.071-0.494l9.025-9.467
		l0.117-0.124C41.525,19.051,41.749,18.565,41.737,18.127z"/>
	<path opacity="0.5098" fill="#919396" d="M41.733,18.116C41.58,12.183,36.56,7.513,30.582,7.666
		c-6.006,0.153-10.751,5.12-10.596,11.094c0.154,5.972,5.148,10.702,11.155,10.536c0.743-0.02,1.071-0.492,1.071-0.492l9.035-9.459
		l0.117-0.124C41.521,19.04,41.745,18.554,41.733,18.116z"/>
	<path opacity="0.5294" fill="#8E9092" d="M41.729,18.105c-0.147-5.934-5.162-10.608-11.14-10.462
		c-6.006,0.147-10.756,5.109-10.607,11.083c0.148,5.973,5.138,10.707,11.145,10.547c0.743-0.019,1.072-0.491,1.072-0.491
		l9.045-9.449l0.117-0.124C41.516,19.029,41.74,18.543,41.729,18.105z"/>
	<path opacity="0.549" fill="#8A8C8E" d="M41.726,18.094C41.584,12.161,36.575,7.48,30.597,7.621
		c-6.007,0.141-10.762,5.099-10.619,11.071c0.142,5.973,5.126,10.713,11.134,10.56c0.742-0.019,1.072-0.49,1.072-0.49l9.055-9.44
		l0.117-0.124C41.512,19.017,41.736,18.533,41.726,18.094z"/>
	<path opacity="0.5686" fill="#86888B" d="M41.722,18.083c-0.135-5.934-5.14-10.619-11.119-10.485
		c-6.007,0.135-10.767,5.088-10.63,11.061c0.136,5.973,5.116,10.719,11.123,10.57c0.743-0.017,1.073-0.488,1.073-0.488l9.064-9.432
		l0.118-0.123C41.507,19.006,41.732,18.521,41.722,18.083z"/>
	<path opacity="0.5882" fill="#828487" d="M41.719,18.072c-0.129-5.935-5.13-10.625-11.108-10.496
		c-6.007,0.129-10.772,5.076-10.642,11.05c0.129,5.974,5.104,10.723,11.112,10.582c0.742-0.017,1.073-0.488,1.073-0.488l9.074-9.421
		l0.118-0.124C41.502,18.995,41.729,18.51,41.719,18.072z"/>
	<path opacity="0.6078" fill="#7F8183" d="M41.715,18.06c-0.123-5.934-5.118-10.629-11.097-10.507
		C24.61,7.676,19.84,12.618,19.964,18.592c0.124,5.973,5.094,10.729,11.102,10.594c0.743-0.016,1.074-0.487,1.074-0.487l9.083-9.412
		l0.118-0.124C41.498,18.983,41.724,18.499,41.715,18.06z"/>
	<path opacity="0.6275" fill="#7B7D7F" d="M41.711,18.049c-0.117-5.934-5.108-10.635-11.086-10.519
		c-6.007,0.116-10.783,5.054-10.665,11.028c0.117,5.973,5.083,10.733,11.09,10.604c0.743-0.015,1.074-0.486,1.074-0.486l9.094-9.402
		l0.118-0.124C41.493,18.971,41.72,18.488,41.711,18.049z"/>
	<path opacity="0.6471" fill="#77797C" d="M41.707,18.039c-0.11-5.935-5.096-10.641-11.075-10.531
		c-6.008,0.111-10.788,5.043-10.676,11.018c0.111,5.974,5.071,10.738,11.079,10.615c0.743-0.014,1.075-0.484,1.075-0.484
		l9.104-9.394l0.119-0.124C41.488,18.96,41.716,18.477,41.707,18.039z"/>
	<path opacity="0.6667" fill="#747578" d="M41.704,18.027c-0.104-5.935-5.085-10.646-11.065-10.542
		c-6.007,0.104-10.793,5.033-10.688,11.007c0.104,5.974,5.061,10.743,11.068,10.627c0.743-0.014,1.075-0.483,1.075-0.483
		l9.113-9.385l0.119-0.123C41.484,18.949,41.711,18.465,41.704,18.027z"/>
	<path opacity="0.6863" fill="#707174" d="M41.7,18.016c-0.099-5.935-5.074-10.651-11.054-10.553
		c-6.008,0.098-10.799,5.021-10.7,10.996c0.099,5.974,5.049,10.749,11.057,10.64c0.743-0.013,1.076-0.483,1.076-0.483l9.123-9.375
		l0.119-0.123C41.479,18.938,41.707,18.455,41.7,18.016z"/>
	<path opacity="0.7059" fill="#6C6D70" d="M41.696,18.004C41.604,12.07,36.633,7.349,30.653,7.44
		c-6.008,0.093-10.804,5.011-10.711,10.985s5.039,10.755,11.047,10.65c0.743-0.012,1.076-0.481,1.076-0.481l9.133-9.366l0.119-0.122
		C41.474,18.926,41.703,18.444,41.696,18.004z"/>
	<path opacity="0.7255" fill="#68696C" d="M41.693,17.994C41.606,12.059,36.64,7.332,30.66,7.417
		c-6.008,0.086-10.809,4.999-10.722,10.975c0.086,5.975,5.026,10.76,11.035,10.661c0.743-0.011,1.077-0.48,1.077-0.48l9.143-9.356
		l0.119-0.122C41.47,18.916,41.699,18.432,41.693,17.994z"/>
	<path opacity="0.7451" fill="#646567" d="M41.689,17.983c-0.08-5.936-5.042-10.667-11.021-10.588
		c-6.008,0.08-10.814,4.988-10.733,10.964c0.08,5.975,5.016,10.765,11.024,10.673c0.743-0.01,1.078-0.479,1.078-0.479l9.152-9.348
		l0.119-0.122C41.465,18.904,41.695,18.421,41.689,17.983z"/>
	<path opacity="0.7647" fill="#606163" d="M41.686,17.971C41.612,12.036,36.654,7.3,30.675,7.373
		c-6.009,0.074-10.82,4.977-10.746,10.953c0.074,5.975,5.005,10.77,11.014,10.685c0.743-0.01,1.078-0.479,1.078-0.479l9.162-9.338
		l0.119-0.123C41.461,18.892,41.691,18.411,41.686,17.971z"/>
	<path opacity="0.7843" fill="#5C5C5F" d="M41.682,17.96c-0.067-5.936-5.02-10.677-11-10.61
		c-6.009,0.068-10.826,4.967-10.757,10.942c0.068,5.975,4.994,10.775,11.003,10.695c0.743-0.009,1.078-0.478,1.078-0.478
		l9.172-9.328l0.119-0.123C41.456,18.881,41.687,18.399,41.682,17.96z"/>
	<path opacity="0.8039" fill="#57585A" d="M41.678,17.95c-0.062-5.936-5.008-10.683-10.989-10.622
		C24.68,7.389,19.858,12.283,19.92,18.259c0.062,5.975,4.983,10.78,10.993,10.707c0.742-0.009,1.078-0.477,1.078-0.477l9.182-9.319
		l0.12-0.122C41.451,18.87,41.683,18.388,41.678,17.95z"/>
	<path opacity="0.8235" fill="#535355" d="M41.674,17.938C41.619,12.002,36.677,7.25,30.696,7.305
		c-6.009,0.056-10.836,4.944-10.78,10.92s4.972,10.786,10.981,10.719c0.743-0.007,1.08-0.475,1.08-0.475l9.191-9.311l0.12-0.122
		C41.447,18.858,41.678,18.376,41.674,17.938z"/>
	<path opacity="0.8431" fill="#4E4F51" d="M41.67,17.927c-0.049-5.936-4.986-10.693-10.967-10.645
		c-6.009,0.049-10.841,4.934-10.792,10.909c0.049,5.976,4.961,10.791,10.97,10.73c0.743-0.007,1.08-0.474,1.08-0.474l9.202-9.302
		l0.12-0.122C41.442,18.847,41.674,18.366,41.67,17.927z"/>
	<path opacity="0.8627" fill="#4A4A4C" d="M41.667,17.916C41.624,11.98,36.691,7.217,30.71,7.26
		c-6.01,0.043-10.846,4.922-10.803,10.898c0.043,5.976,4.95,10.797,10.959,10.741c0.743-0.005,1.08-0.472,1.08-0.472l9.211-9.293
		l0.12-0.121C41.437,18.835,41.67,18.354,41.667,17.916z"/>
	<path opacity="0.8824" fill="#454547" d="M41.663,17.905c-0.037-5.937-4.965-10.704-10.946-10.667
		c-6.009,0.037-10.851,4.912-10.814,10.888c0.037,5.976,4.939,10.802,10.948,10.753c0.743-0.005,1.081-0.472,1.081-0.472
		l9.221-9.283l0.12-0.121C41.433,18.824,41.666,18.343,41.663,17.905z"/>
	<path opacity="0.902" fill="#404041" d="M41.66,17.894c-0.031-5.937-4.954-10.709-10.935-10.679
		c-6.01,0.031-10.856,4.901-10.826,10.877c0.031,5.976,4.928,10.807,10.938,10.765c0.743-0.005,1.082-0.471,1.082-0.471l9.231-9.273
		l0.12-0.122C41.428,18.813,41.662,18.333,41.66,17.894z"/>
	<path opacity="0.9216" fill="#383739" d="M41.656,17.882c-0.025-5.937-4.943-10.714-10.925-10.689
		c-6.01,0.024-10.862,4.889-10.837,10.866c0.025,5.976,4.917,10.812,10.927,10.775c0.743-0.003,1.082-0.469,1.082-0.469l9.241-9.265
		l0.12-0.122C41.424,18.802,41.658,18.322,41.656,17.882z"/>
	<path opacity="0.9412" fill="#2D2D2E" d="M41.652,17.872c-0.018-5.937-4.931-10.72-10.913-10.701
		c-6.01,0.019-10.868,4.878-10.849,10.855c0.019,5.976,4.906,10.816,10.916,10.786c0.744-0.002,1.083-0.468,1.083-0.468l9.25-9.255
		l0.12-0.122C41.419,18.791,41.653,18.31,41.652,17.872z"/>
	<path opacity="0.9608" fill="#222223" d="M41.648,17.861c-0.012-5.938-4.921-10.726-10.902-10.713
		c-6.01,0.012-10.873,4.867-10.86,10.845c0.012,5.976,4.895,10.822,10.905,10.798c0.743-0.002,1.083-0.467,1.083-0.467l9.26-9.246
		l0.121-0.121C41.414,18.779,41.649,18.299,41.648,17.861z"/>
	<path opacity="0.9804" fill="#141414" d="M41.645,17.849c-0.006-5.938-4.91-10.73-10.892-10.724
		c-6.011,0.006-10.878,4.856-10.872,10.833c0.006,5.977,4.883,10.828,10.894,10.811c0.743-0.001,1.084-0.467,1.084-0.467l9.27-9.236
		l0.121-0.121C41.41,18.768,41.645,18.288,41.645,17.849z"/>
	<path d="M41.641,17.838c0-5.938-4.899-10.736-10.881-10.736c-6.011,0-10.883,4.845-10.883,10.823
		c0,5.977,4.873,10.833,10.883,10.821c0.743,0,1.084-0.465,1.084-0.465l9.28-9.228l0.121-0.121
		C41.405,18.756,41.641,18.277,41.641,17.838z"/>
</g>
<path fill="#00A651" d="M29.527,17.125c0.023,0,0.046-0.003,0.07-0.003c-0.031,0-0.06,0.002-0.09,0.002
	C29.514,17.124,29.52,17.125,29.527,17.125z"/>
<linearGradient id="SVGID_1_" gradientUnits="userSpaceOnUse" x1="19.7197" y1="17.917" x2="41.7959" y2="17.917">
	<stop  offset="0" style="stop-color:#A12248"/>
	<stop  offset="0.0338" style="stop-color:#A32249"/>
	<stop  offset="0.4465" style="stop-color:#C11D54"/>
	<stop  offset="0.7833" style="stop-color:#D4195B"/>
	<stop  offset="1" style="stop-color:#DD155E"/>
</linearGradient>
<path fill="url(#SVGID_1_)" d="M41.796,17.829c0-6.022-4.97-10.89-11.037-10.89c-6.097,0-11.04,4.914-11.04,10.978
	c0,6.062,4.942,10.99,11.04,10.979c0.754-0.002,1.1-0.473,1.1-0.473l9.413-9.36l0.123-0.122
	C41.557,18.76,41.796,18.274,41.796,17.829z"/>
<path fill="#333342" d="M26.023,24.355L26.023,24.355c1.243,0.874,2.744,1.416,4.378,1.483c4.517,0.188,8.332-3.302,8.521-7.793
	c0.189-4.492-3.319-8.286-7.836-8.474c-4.518-0.188-8.334,3.301-8.523,7.793c-0.069,1.622,0.348,3.152,1.118,4.456l0,0l0.902,1.363
	L26.023,24.355z M26.869,23.166l-0.605-0.426l-0.441-0.391l-0.503-0.632l-0.375-0.634c-0.655-1.108-0.971-2.372-0.917-3.658
	c0.155-3.683,3.293-6.552,6.997-6.398c3.703,0.154,6.589,3.274,6.434,6.958c-0.155,3.682-3.293,6.552-6.996,6.398
	C29.168,24.329,27.925,23.908,26.869,23.166z"/>
<circle fill="#FFFFFF" cx="30.783" cy="17.733" r="7.298"/>
<path fill="#333342" d="M28.938,14.231c-0.913,0-1.408,0.782-1.408,1.412c0,0.656,0.623,1.339,1.408,1.339
	c0.901,0,1.435-0.594,1.435-1.339C30.373,15.013,29.852,14.231,28.938,14.231z"/>
<path fill="#333342" d="M28.937,18.117c-0.914,0-1.409,0.783-1.409,1.414c0,0.655,0.583,1.337,1.409,1.337
	c0.863,0,1.435-0.593,1.435-1.337C30.371,18.9,29.85,18.117,28.937,18.117z"/>
<path fill="#333342" d="M31.94,12.11l-1.063,1.087c0.496,0.596,1.59,1.858,1.59,4.075c0,2.288-0.98,3.53-1.59,4.249l1.063,1.099
	c1.116-1.007,2.426-3.008,2.426-5.348C34.367,14.849,32.797,12.848,31.94,12.11z"/>
<linearGradient id="SVGID_2_" gradientUnits="userSpaceOnUse" x1="34.3081" y1="21.4849" x2="36.5786" y2="23.7553">
	<stop  offset="0" style="stop-color:#CAD1D4"/>
	<stop  offset="0.2889" style="stop-color:#E7E9EA"/>
	<stop  offset="0.5271" style="stop-color:#FFFFFF"/>
	<stop  offset="1" style="stop-color:#C7C8D3"/>
</linearGradient>
<path fill="url(#SVGID_2_)" d="M40.357,19.411c0,0-1.658,0.087-1.696,0.087c-2.922,0-6.29,2.909-6.29,6.3
	c0,0.023-0.109,1.561-0.109,1.561c0,0.413-0.154,0.787-0.402,1.064l1.06-1.055l7.44-7.398l0.912-0.907
	C41.023,19.28,40.704,19.411,40.357,19.411z"/>
</svg>
